<svg width="769" height="225" viewBox="0 0 769 225" fill="none" xmlns="http://www.w3.org/2000/svg">
<ellipse cx="572.663" cy="221.936" rx="4.14973" ry="2.07487" fill="#9C7B26"/>
<rect y="219.861" width="572.663" height="4.14973" fill="#9C7B26"/>
<path d="M161.842 210H200.374V106.602H227.05V76.392H135.166V106.602H161.842V210ZM294.159 194.838L297.693 210H329.271V113.1H285.837V126.21L291.993 130.314V183.894C291.765 184.046 291.423 184.312 290.967 184.692C290.587 184.996 290.283 185.224 290.055 185.376C289.903 185.528 289.637 185.756 289.257 186.06C288.877 186.288 288.573 186.478 288.345 186.63C288.117 186.782 287.813 186.972 287.433 187.2C287.053 187.352 286.711 187.466 286.407 187.542C286.179 187.618 285.875 187.732 285.495 187.884C285.115 187.96 284.735 188.036 284.355 188.112C283.975 188.112 283.557 188.112 283.101 188.112C279.909 188.112 277.705 187.314 276.489 185.718C275.273 184.046 274.703 181.5 274.779 178.08V113.1H233.397V126.21L237.387 130.314V170.898C237.387 185.794 239.667 196.434 244.227 202.818C248.863 209.202 256.539 212.394 267.255 212.394C270.675 212.394 274.057 211.634 277.401 210.114C280.745 208.67 283.557 206.922 285.837 204.87C288.117 202.742 289.941 200.804 291.309 199.056C292.753 197.308 293.703 195.902 294.159 194.838ZM381.776 210V157.902C383.98 153.798 388.958 151.746 396.71 151.746C402.107 151.746 405.603 152.468 407.199 153.912L411.075 113.328C409.023 112.644 407.046 112.302 405.146 112.302C388.274 112.302 378.28 121.612 375.164 140.232L371.858 113.1H362.624L338.115 119.142V132.024L344.955 136.242V210H381.776ZM478.469 210C484.777 210 490.363 208.708 495.227 206.124C500.167 203.464 504.195 199.816 507.311 195.18C510.427 190.544 512.783 185.224 514.379 179.22C515.975 173.14 516.773 166.528 516.773 159.384C516.773 144.184 513.809 132.29 507.881 123.702C502.029 115.114 492.833 110.82 480.293 110.82C477.329 110.82 474.517 111.162 471.857 111.846C469.273 112.53 466.955 113.442 464.903 114.582C462.851 115.722 461.103 116.9 459.659 118.116C458.215 119.332 456.885 120.624 455.669 121.992V60.66H448.259L411.665 66.36V76.962L418.505 81.066V210H455.669V204.642C462.357 208.214 469.957 210 478.469 210ZM461.711 194.154C460.799 194.154 459.849 194.116 458.861 194.04C457.873 193.888 456.809 193.66 455.669 193.356V134.076C458.557 132.024 461.407 130.998 464.219 130.998C467.943 130.998 470.983 132.784 473.339 136.356C475.771 139.852 476.987 144.868 476.987 151.404V170.784C476.987 186.364 471.895 194.154 461.711 194.154ZM574.474 198.714C567.482 198.714 563.986 191.532 563.986 177.168V140.118C563.986 135.254 564.898 131.492 566.722 128.832C568.546 126.172 571.092 124.842 574.36 124.842C581.352 124.842 584.848 132.252 584.848 147.072V183.096C584.848 187.96 583.936 191.798 582.112 194.61C580.364 197.346 577.818 198.714 574.474 198.714ZM573.562 212.394C591.574 212.394 604.76 208.214 613.12 199.854C621.556 191.494 625.774 178.574 625.774 161.094C625.774 144.222 621.784 131.644 613.804 123.36C605.9 115 593.018 110.82 575.158 110.82C556.842 110.82 543.618 115.19 535.486 123.93C527.354 132.594 523.288 145.514 523.288 162.69C523.288 180.018 527.316 192.634 535.372 200.538C543.428 208.442 556.158 212.394 573.562 212.394Z" fill="#9C7B26"/>
</svg>
