<svg width="609" height="137" viewBox="0 0 609 137" fill="none" xmlns="http://www.w3.org/2000/svg">
<rect x="0.197876" y="44.4599" width="232.385" height="4.14973" fill="#BA3A3A"/>
<rect x="41.6952" y="61.0588" width="190.888" height="4.14973" fill="#BA3A3A"/>
<rect x="74.8931" y="77.6577" width="157.69" height="4.14973" fill="#BA3A3A"/>
<rect x="108.091" y="94.2567" width="124.492" height="4.14973" fill="#BA3A3A"/>
<rect x="149.588" y="110.856" width="82.9947" height="4.14973" fill="#BA3A3A"/>
<path d="M271.608 102.783H266.746V82.5243H271.608C273.811 82.5243 275.785 83.1061 277.53 84.2697C279.275 85.3917 280.148 87.3032 280.148 90.0043V94.3677C280.148 96.6532 279.462 98.6271 278.091 100.289C276.72 101.952 274.559 102.783 271.608 102.783ZM279.275 60.6453V62.2037C279.275 64.9463 278.631 67.2734 277.343 69.185C276.055 71.055 274.206 71.99 271.795 71.99H266.746V53.9757H271.297C273.873 53.9757 275.847 54.4743 277.218 55.4717C278.59 56.4274 279.275 58.152 279.275 60.6453ZM275.847 115.561C280.377 115.561 284.324 115 287.69 113.878C291.056 112.756 293.716 111.198 295.669 109.203C297.664 107.167 299.139 104.86 300.095 102.284C301.05 99.666 301.528 96.7571 301.528 93.5573C301.528 82.9191 296.625 77.1637 286.818 76.291C290.682 75.5014 293.633 73.5276 295.669 70.3693C297.705 67.2111 298.723 63.4296 298.723 59.0247C298.723 56.1573 298.308 53.6848 297.477 51.607C296.687 49.5292 295.337 47.7008 293.425 46.1217C291.513 44.5426 288.875 43.3582 285.509 42.5687C282.184 41.7791 278.091 41.3843 273.229 41.3843C271.733 41.3843 269.302 41.4882 265.936 41.696C262.57 41.8622 259.578 41.9453 256.96 41.9453H246.176V115H252.16C254.404 115.042 258.103 115.145 263.256 115.312C268.409 115.478 272.606 115.561 275.847 115.561ZM335.59 116.309C339.953 116.309 343.777 115.893 347.059 115.062C350.384 114.231 353.064 113.13 355.1 111.759C357.178 110.346 358.84 108.6 360.087 106.523C361.375 104.403 362.248 102.222 362.705 99.9777C363.204 97.7337 363.453 95.2196 363.453 92.4353V41.9453H343.756V89.4433C343.756 92.1029 343.548 94.3677 343.132 96.2377C342.758 98.0661 342.197 99.479 341.449 100.476C340.701 101.432 339.891 102.118 339.018 102.533C338.146 102.907 337.128 103.094 335.964 103.094C333.845 103.094 332.224 102.118 331.102 100.165C330.022 98.17 329.481 94.5339 329.481 89.2563V41.9453H307.291V92.0613C307.291 94.8871 307.561 97.4636 308.101 99.7907C308.641 102.118 309.576 104.341 310.906 106.46C312.277 108.538 314.002 110.283 316.08 111.696C318.199 113.109 320.9 114.231 324.183 115.062C327.508 115.893 331.31 116.309 335.59 116.309ZM392.325 90.69C392.657 90.69 393.177 90.7108 393.883 90.7523C394.631 90.7939 395.337 90.8354 396.002 90.877C396.667 90.9186 397.436 90.9601 398.309 91.0017C399.223 91.0017 400.075 91.0017 400.864 91.0017C400.989 91.0017 401.093 91.0017 401.176 91.0017C401.966 93.5366 402.568 96.6948 402.984 100.476C403.441 104.216 403.794 107.437 404.043 110.138C404.293 112.798 404.646 114.418 405.103 115H428.104C427.231 113.878 426.421 112.195 425.673 109.951C424.967 107.707 424.322 105.442 423.741 103.157C423.2 100.83 422.556 98.544 421.808 96.3C421.06 94.0144 420.001 92.0406 418.629 90.3783C417.3 88.7161 415.7 87.6564 413.83 87.1993C417.279 84.9969 420.042 82.0257 422.12 78.2857C424.239 74.5457 425.299 70.2654 425.299 65.445C425.299 57.3001 423.076 51.2538 418.629 47.306C414.224 43.3582 407.534 41.3843 398.558 41.3843C395.982 41.3843 392.719 41.4882 388.772 41.696C384.824 41.8622 381.853 41.9453 379.858 41.9453H371.63V115H392.325V90.69ZM392.325 79.096V53.4147H393.509C397.041 53.4147 399.742 54.1419 401.612 55.5963C403.524 57.0092 404.48 59.5233 404.48 63.1387V68.063C404.48 69.7252 404.355 71.1797 404.106 72.4263C403.856 73.673 403.482 74.6911 402.984 75.4807C402.485 76.2702 401.945 76.9143 401.363 77.413C400.823 77.9117 400.116 78.2857 399.244 78.535C398.413 78.7428 397.644 78.8882 396.937 78.9713C396.231 79.0544 395.358 79.096 394.319 79.096H392.325ZM476.587 108.393L477.335 115H488.43L488.492 72.1147H460.754V84.8307L468.982 86.7007V93.0587C468.982 95.3027 468.774 97.1519 468.359 98.6063C467.943 100.019 467.299 101.1 466.426 101.848C465.554 102.554 464.619 103.053 463.621 103.344C462.624 103.593 461.398 103.718 459.944 103.718C456.993 103.718 455.019 101.536 454.022 97.1727C453.066 92.8093 452.588 86.1189 452.588 77.1013C452.588 72.7796 452.775 69.1227 453.149 66.1307C453.523 63.0971 454.001 60.7077 454.583 58.9623C455.206 57.1754 456.037 55.8249 457.076 54.9107C458.157 53.9549 459.237 53.3316 460.318 53.0407C461.398 52.7498 462.769 52.6043 464.432 52.6043C466.468 52.6043 467.943 52.8537 468.857 53.3523L472.41 61.6427H483.755L484.69 47.306C484.607 47.2229 484.482 47.0982 484.316 46.932C484.191 46.7658 483.838 46.4541 483.256 45.997C482.675 45.5399 482.03 45.1243 481.324 44.7503C480.659 44.3348 479.724 43.8777 478.519 43.379C477.355 42.8388 476.109 42.4024 474.779 42.07C473.449 41.696 471.829 41.3843 469.917 41.135C468.047 40.8857 466.073 40.761 463.995 40.761C459.383 40.761 455.269 41.1766 451.653 42.0077C448.038 42.7972 444.963 44.0023 442.428 45.623C439.893 47.2437 437.753 49.1552 436.008 51.3577C434.262 53.5186 432.891 56.095 431.894 59.087C430.896 62.079 430.169 65.2164 429.712 68.4993C429.296 71.7822 429.089 75.4807 429.089 79.5947C429.089 85.1216 429.587 90.0459 430.585 94.3677C431.624 98.6894 433.244 102.533 435.447 105.899C437.649 109.265 440.62 111.842 444.36 113.629C448.142 115.416 452.609 116.309 457.762 116.309C465.034 116.309 471.309 113.67 476.587 108.393ZM538.913 115V99.4167L515.351 100.04V83.4593L532.181 84.706V70.12H515.351V56.0327L536.731 56.656L537.978 41.9453H494.718V115H538.913ZM565.08 90.69C565.413 90.69 565.932 90.7108 566.639 90.7523C567.387 90.7939 568.093 90.8354 568.758 90.877C569.423 90.9186 570.192 90.9601 571.064 91.0017C571.979 91.0017 572.831 91.0017 573.62 91.0017C573.745 91.0017 573.849 91.0017 573.932 91.0017C574.721 93.5366 575.324 96.6948 575.739 100.476C576.197 104.216 576.55 107.437 576.799 110.138C577.048 112.798 577.402 114.418 577.859 115H600.86C599.987 113.878 599.177 112.195 598.429 109.951C597.722 107.707 597.078 105.442 596.496 103.157C595.956 100.83 595.312 98.544 594.564 96.3C593.816 94.0144 592.756 92.0406 591.385 90.3783C590.055 88.7161 588.455 87.6564 586.585 87.1993C590.035 84.9969 592.798 82.0257 594.876 78.2857C596.995 74.5457 598.055 70.2654 598.055 65.445C598.055 57.3001 595.832 51.2538 591.385 47.306C586.98 43.3582 580.29 41.3843 571.314 41.3843C568.737 41.3843 565.475 41.4882 561.527 41.696C557.58 41.8622 554.608 41.9453 552.614 41.9453H544.386V115H565.08V90.69ZM565.08 79.096V53.4147H566.265C569.797 53.4147 572.498 54.1419 574.368 55.5963C576.28 57.0092 577.235 59.5233 577.235 63.1387V68.063C577.235 69.7252 577.111 71.1797 576.861 72.4263C576.612 73.673 576.238 74.6911 575.739 75.4807C575.241 76.2702 574.701 76.9143 574.119 77.413C573.579 77.9117 572.872 78.2857 571.999 78.535C571.168 78.7428 570.4 78.8882 569.693 78.9713C568.987 79.0544 568.114 79.096 567.075 79.096H565.08Z" fill="#BA3A3A"/>
</svg>
